<svg id="Layer_1" enable-background="new 0 0 512.054 512.054" height="512" viewBox="0 0 512.054 512.054" width="512" xmlns="http://www.w3.org/2000/svg"><g><g><path d="m218.16 504.554c-5.59 0-10.92-.3-16-.9-111.728-12.94-101.649-163.11-101.649-222.519h235.297c0 62.109 11.01 223.419-117.648 223.419z" fill="#edf8f9"/><path d="m218.16 504.554c-5.59 0-10.92-.3-16-.9 111.718-12.94 101.649-163.11 101.649-222.519h32c-.001 62.109 11.009 223.419-117.649 223.419z" fill="#daeeef"/></g><path d="m280.759 129.895-28 23.49-152.248 127.75c-38.269-45.59-142.848-154.49-64.719-236.279 3.39-3.55 7.13-7.05 11.23-10.49 98.569-82.701 193.807 47.949 233.737 95.529z" fill="#ff76b4"/><path d="m280.759 129.895-28 23.49c-38.689-46.59-126.218-162.03-216.967-108.53 3.39-3.55 7.13-7.05 11.23-10.49 98.569-82.7 193.807 47.95 233.737 95.53z" fill="#dd62c6"/><g><path d="m432.987 186.445c-7.76 7.76-19.35 9.35-28.68 4.77-2.41-1.17-4.68-2.77-6.68-4.77-9.76-9.77-9.76-25.6 0-35.36 2-2 4.27-3.6 6.68-4.77 9.33-4.58 20.92-2.99 28.68 4.77 9.759 9.76 9.759 25.59 0 35.36z" fill="#96c9d6"/><path d="m432.987 186.445c-7.76 7.76-19.35 9.35-28.68 4.77 8.29-4.06 14-12.59 14-22.45s-5.71-18.39-14-22.45c9.33-4.58 20.92-2.99 28.68 4.77 9.759 9.76 9.759 25.59 0 35.36z" fill="#77a5af"/><path d="m495.566 69.975c-9.1 9.1-22.49 11.28-33.64 6.52-3.51-1.48-6.79-3.66-9.65-6.52-11.95-11.95-11.95-31.33 0-43.28 2.86-2.86 6.15-5.04 9.66-6.52 11.15-4.75 24.53-2.57 33.63 6.52 11.95 11.95 11.95 31.33 0 43.28z" fill="#96c9d6"/><path d="m495.566 69.975c-9.1 9.1-22.49 11.28-33.64 6.52 10.94-4.66 18.6-15.51 18.6-28.16 0-12.64-7.66-23.48-18.59-28.16 11.15-4.75 24.53-2.57 33.63 6.52 11.95 11.95 11.95 31.33 0 43.28z" fill="#77a5af"/><g fill="#96c9d6"><circle cx="342.901" cy="76.73" r="17.155"/><path d="m397.966 300.938c-6.699 6.699-6.699 17.561 0 24.261 6.699 6.699 17.561 6.699 24.26 0s6.699-17.561 0-24.261-17.561-6.7-24.26 0z"/><path d="m287.069 192.027c-6.699 6.699-6.699 17.561 0 24.261 6.699 6.699 17.561 6.699 24.26 0s6.699-17.561 0-24.261c-6.698-6.699-17.56-6.699-24.26 0z"/><circle cx="487.371" cy="244.729" r="17.155"/></g></g></g><g><path d="m107.904 295.019c.024-2.186.047-4.317.065-6.38h58.76c4.143 0 7.5-3.357 7.5-7.5s-3.357-7.5-7.5-7.5h-45.615l164.462-138.002c3.173-2.662 3.587-7.393.924-10.565-2.657-3.168-5.609-6.764-8.734-10.57-15.616-19.023-37.003-45.077-62.327-67.477-3.103-2.745-7.843-2.454-10.587.649s-2.453 7.842.649 10.587c24.427 21.605 45.375 47.124 60.671 65.757 1.386 1.688 2.737 3.335 4.047 4.925l-168.816 141.655c-1.34-1.568-2.729-3.188-4.151-4.847-32.465-37.854-86.8-101.212-81.915-160.734 2.004-24.419 14.287-46.255 36.51-64.902 38.963-32.694 80.629-33.443 127.376-2.29 3.446 2.295 8.103 1.365 10.4-2.082s1.365-8.104-2.082-10.4c-52.305-34.856-101.202-33.752-145.337 3.281-25.404 21.317-39.474 46.607-41.817 75.166-5.396 65.762 51.49 132.094 85.479 171.727 2.52 2.938 4.929 5.748 7.136 8.354-.015 3.415-.055 7.116-.097 10.986-.461 42.825-1.233 114.502 27.425 163.485 1.396 2.385 3.903 3.714 6.48 3.714 1.286 0 2.59-.331 3.78-1.027 3.575-2.092 4.778-6.686 2.687-10.261-26.561-45.401-25.817-114.478-25.373-155.749z"/><path d="m343.304 281.139c0-4.143-3.357-7.5-7.5-7.5h-133.789c-4.143 0-7.5 3.357-7.5 7.5s3.357 7.5 7.5 7.5h126.328c.019 2.063.041 4.194.065 6.38.537 49.867 1.436 133.328-40.566 175.786-17.231 17.417-40.678 26.249-69.687 26.249-26.095 0-47.709-7.131-64.242-21.196-3.154-2.683-7.889-2.301-10.572.854s-2.302 7.888.854 10.572c19.321 16.437 44.205 24.771 73.961 24.771 33.163 0 60.197-10.329 80.35-30.7 46.405-46.908 45.465-134.288 44.902-186.496-.054-4.929-.104-9.584-.104-13.72z"/><path d="m275.641 414.973c3.193 0 6.153-2.056 7.156-5.264 2.69-8.604 4.889-18.301 6.531-28.821 2.241-14.355 3.553-30.569 4.012-49.568.1-4.141-3.176-7.578-7.317-7.679-.062-.001-.123-.002-.185-.002-4.058 0-7.396 3.24-7.494 7.319-.442 18.338-1.697 33.913-3.836 47.615-1.529 9.79-3.557 18.76-6.027 26.659-1.236 3.953.966 8.16 4.92 9.396.745.234 1.499.345 2.24.345z"/><path d="m262.962 446.189c2.913-2.944 2.888-7.693-.058-10.606-2.944-2.912-7.693-2.887-10.606.058-4.848 4.899-13.661 11.414-34.141 11.414-4.143 0-7.5 3.357-7.5 7.5s3.357 7.5 7.5 7.5c12.496-.001 30.736-1.646 44.805-15.866z"/><path d="m438.288 145.783c-6.139-6.14-14.3-9.521-22.98-9.521-8.65 0-16.782 3.356-22.912 9.452-.023.022-.046.044-.069.067l-32.6 32.6c-2.929 2.93-2.929 7.678 0 10.607 1.465 1.464 3.385 2.196 5.304 2.196s3.839-.732 5.304-2.196l13.225-13.226c1.312 6.009 4.313 11.528 8.767 15.981 4.453 4.453 9.972 7.454 15.98 8.767l-13.225 13.225c-2.929 2.93-2.929 7.678 0 10.607 1.465 1.464 3.385 2.196 5.304 2.196s3.839-.732 5.304-2.196l32.599-32.599c.025-.025.049-.05.073-.075 12.596-12.676 12.572-33.238-.074-45.885zm-35.355 35.355c-3.306-3.305-5.126-7.7-5.126-12.374 0-4.637 1.791-8.998 5.047-12.295l.079-.079c.009-.009.017-.018.025-.026 3.302-3.289 7.686-5.101 12.349-5.101 4.674 0 9.068 1.821 12.373 5.127 6.823 6.822 6.823 17.925 0 24.748-6.822 6.824-17.924 6.824-24.747 0z"/><path d="m412.371 74.107c1.919 0 3.839-.732 5.304-2.196l18.495-18.496c1.067 8.004 4.668 15.731 10.805 21.869 6.138 6.137 13.865 9.739 21.87 10.806l-18.496 18.496c-2.929 2.93-2.929 7.678 0 10.607 1.465 1.464 3.385 2.196 5.304 2.196s3.839-.732 5.304-2.196l39.908-39.909c14.856-14.857 14.856-39.032 0-53.89-14.858-14.855-39.033-14.854-53.89 0l-39.908 39.909c-2.929 2.93-2.929 7.678 0 10.607 1.465 1.464 3.385 2.197 5.304 2.197zm61.55-48.863c5.916 0 11.833 2.252 16.337 6.757 9.009 9.008 9.009 23.667 0 32.675-9.009 9.011-23.668 9.009-32.675 0-9.009-9.008-9.009-23.667 0-32.675 4.504-4.505 10.421-6.757 16.338-6.757z"/><path d="m308.401 94.469c1.919 0 3.839-.732 5.303-2.196l6.33-6.329c1.201 2.994 3.013 5.799 5.434 8.221 2.421 2.421 5.225 4.232 8.219 5.433l-6.328 6.328c-2.929 2.93-2.929 7.678 0 10.607 1.465 1.464 3.385 2.196 5.304 2.196s3.839-.732 5.304-2.196l22.369-22.369c.025-.025.049-.05.073-.075 9.539-9.619 9.515-25.205-.073-34.792-4.656-4.657-10.848-7.223-17.434-7.223s-12.777 2.565-17.434 7.222c-.025.025-.051.051-.076.077l-22.293 22.292c-2.93 2.929-2.93 7.678-.001 10.606 1.464 1.465 3.383 2.198 5.303 2.198zm41.326-24.566c3.765 3.764 3.765 9.89 0 13.653-3.764 3.765-9.889 3.765-13.652.001-3.765-3.765-3.765-9.891 0-13.655 1.823-1.823 4.248-2.828 6.826-2.828s5.003 1.005 6.826 2.829z"/><path d="m392.735 295.563c-.024.023-.049.047-.073.071l-22.37 22.37c-2.929 2.93-2.929 7.678 0 10.607 1.465 1.464 3.385 2.196 5.304 2.196s3.839-.732 5.304-2.196l6.318-6.318c1.224 3.037 3.06 5.824 5.445 8.209s5.173 4.22 8.21 5.444l-6.319 6.319c-2.929 2.929-2.929 7.678.001 10.606 1.464 1.464 3.384 2.196 5.303 2.196s3.839-.732 5.304-2.197l22.29-22.291c.027-.026.053-.052.08-.079 4.656-4.657 7.221-10.849 7.221-17.434 0-6.586-2.564-12.777-7.221-17.435-9.592-9.585-25.177-9.609-34.797-.068zm10.535 10.678c1.882-1.883 4.354-2.823 6.826-2.823s4.944.94 6.826 2.823c3.765 3.764 3.765 9.89 0 13.653-3.764 3.764-9.888 3.764-13.653 0-1.823-1.823-2.828-4.248-2.828-6.826 0-2.579 1.005-5.003 2.829-6.827z"/><path d="m281.689 186.801-22.293 22.294c-2.929 2.929-2.929 7.678.001 10.606 1.464 1.464 3.384 2.196 5.303 2.196s3.839-.732 5.304-2.197l6.328-6.328c1.202 2.994 3.013 5.798 5.435 8.22 2.422 2.421 5.226 4.232 8.22 5.434l-6.33 6.33c-2.929 2.929-2.929 7.678.001 10.606 1.464 1.464 3.384 2.196 5.303 2.196s3.839-.732 5.304-2.197l22.292-22.293c.026-.025.051-.05.077-.076 4.656-4.657 7.221-10.849 7.221-17.434 0-6.586-2.564-12.777-7.221-17.435-9.611-9.61-25.253-9.612-34.868 0-.026.026-.051.052-.077.078zm24.337 10.53c3.765 3.764 3.765 9.89 0 13.653-3.764 3.766-9.89 3.766-13.653 0-3.765-3.764-3.765-9.89-.001-13.653 1.883-1.883 4.355-2.823 6.828-2.823 2.472 0 4.944.941 6.826 2.823z"/><path d="m512.025 244.729c0-6.585-2.564-12.776-7.221-17.434-4.657-4.656-10.849-7.221-17.434-7.221s-12.776 2.564-17.434 7.221l-22.37 22.37c-2.929 2.93-2.929 7.678 0 10.607 1.465 1.464 3.385 2.196 5.304 2.196s3.839-.732 5.304-2.196l6.319-6.319c1.224 3.037 3.06 5.824 5.444 8.209 2.422 2.421 5.226 4.232 8.22 5.434l-6.33 6.33c-2.929 2.929-2.929 7.678.001 10.606 1.464 1.464 3.384 2.196 5.303 2.196s3.839-.732 5.304-2.197l22.292-22.293c.026-.025.051-.05.077-.076 4.657-4.656 7.221-10.847 7.221-17.433zm-31.48-6.827c1.882-1.883 4.354-2.823 6.826-2.823s4.944.94 6.826 2.823c3.765 3.764 3.765 9.89 0 13.653-3.764 3.766-9.889 3.766-13.652 0-3.765-3.763-3.765-9.889 0-13.653z"/></g></svg>